<mxfile host="app.diagrams.net" agent="Mozilla/5.0 (Windows NT 10.0; Win64; x64) AppleWebKit/537.36 (KHTML, like Gecko) Chrome/128.0.0.0 Safari/537.36 OPR/114.0.0.0" version="24.8.6">
  <diagram name="Страница — 1" id="mTOSu6EvbA_pOTBClpt9">
    <mxGraphModel dx="2684" dy="1835" grid="1" gridSize="10" guides="1" tooltips="1" connect="1" arrows="1" fold="1" page="1" pageScale="1" pageWidth="827" pageHeight="1169" math="0" shadow="0">
      <root>
        <mxCell id="0" />
        <mxCell id="1" parent="0" />
        <mxCell id="DXVNn-tkCiMBmw5VKK68-3" value="&lt;span style=&quot;text-align: left;&quot;&gt;Student1&lt;/span&gt;" style="swimlane;fontStyle=1;align=center;verticalAlign=top;childLayout=stackLayout;horizontal=1;startSize=26;horizontalStack=0;resizeParent=1;resizeParentMax=0;resizeLast=0;collapsible=1;marginBottom=0;whiteSpace=wrap;html=1;" parent="1" vertex="1">
          <mxGeometry x="-80" y="-1120" width="380" height="390" as="geometry" />
        </mxCell>
        <mxCell id="DXVNn-tkCiMBmw5VKK68-4" value="- const MaxAge: &lt;span class=&quot;hljs-built_in&quot;&gt;int&lt;/span&gt; = &lt;span class=&quot;hljs-number&quot;&gt;10&lt;/span&gt;&lt;br&gt;+ const&amp;nbsp;UniversityName: string = &quot;BSTU&quot;&lt;br&gt;&lt;span class=&quot;hljs-meta&quot;&gt;# const&amp;nbsp;MinGrade: double = 2.0&lt;/span&gt;&lt;div&gt;&lt;br&gt;- age: &lt;span class=&quot;hljs-built_in&quot;&gt;int&lt;/span&gt;&lt;br&gt;+ fullName: string&amp;nbsp;&lt;br&gt;&lt;span class=&quot;hljs-meta&quot;&gt;# grade: double&amp;nbsp;&lt;/span&gt;&lt;/div&gt;&lt;div&gt;&lt;br&gt;&lt;/div&gt;&lt;div&gt;&amp;lt;&amp;lt;setter&amp;gt;&amp;gt; - PrivateStudentID: &lt;span class=&quot;hljs-built_in&quot;&gt;int&lt;/span&gt;&lt;/div&gt;&lt;div&gt;&amp;lt;&amp;lt;getter&amp;gt;&amp;gt; - PrivateStudentID:&amp;nbsp;&lt;span class=&quot;hljs-built_in&quot;&gt;int&lt;/span&gt;&lt;br&gt;&amp;lt;&amp;lt;setter&amp;gt;&amp;gt; # Year: &lt;span class=&quot;hljs-built_in&quot;&gt;int&lt;/span&gt;&amp;nbsp;&lt;/div&gt;&lt;div&gt;&amp;lt;&amp;lt;getter&amp;gt;&amp;gt; # Year:&amp;nbsp;&lt;span class=&quot;hljs-built_in&quot;&gt;int&lt;/span&gt;&amp;nbsp;&amp;nbsp;&lt;br&gt;&lt;span class=&quot;hljs-meta&quot;&gt;&amp;lt;&amp;lt;setter&amp;gt;&amp;gt; + FullName: string&amp;nbsp;&lt;/span&gt;&lt;/div&gt;&lt;div&gt;&lt;span class=&quot;hljs-meta&quot;&gt;&amp;lt;&amp;lt;getter&amp;gt;&amp;gt; + FullName: string&amp;nbsp;&lt;/span&gt;&lt;/div&gt;&lt;div&gt;&lt;span class=&quot;hljs-meta&quot;&gt;&lt;br&gt;&lt;/span&gt;&lt;/div&gt;&lt;div&gt;&lt;span class=&quot;hljs-meta&quot;&gt;&lt;br&gt;&lt;/span&gt;&lt;/div&gt;" style="text;strokeColor=none;fillColor=none;align=left;verticalAlign=top;spacingLeft=4;spacingRight=4;overflow=hidden;rotatable=0;points=[[0,0.5],[1,0.5]];portConstraint=eastwest;whiteSpace=wrap;html=1;" parent="DXVNn-tkCiMBmw5VKK68-3" vertex="1">
          <mxGeometry y="26" width="380" height="234" as="geometry" />
        </mxCell>
        <mxCell id="DXVNn-tkCiMBmw5VKK68-5" value="" style="line;strokeWidth=1;fillColor=none;align=left;verticalAlign=middle;spacingTop=-1;spacingLeft=3;spacingRight=3;rotatable=0;labelPosition=right;points=[];portConstraint=eastwest;strokeColor=inherit;" parent="DXVNn-tkCiMBmw5VKK68-3" vertex="1">
          <mxGeometry y="260" width="380" height="8" as="geometry" />
        </mxCell>
        <mxCell id="DXVNn-tkCiMBmw5VKK68-6" value="&amp;lt;&amp;lt;constructor&amp;gt;&amp;gt; + Student1()&amp;nbsp;&lt;br&gt;&amp;lt;&amp;lt;constructor&amp;gt;&amp;gt; + Student1(int age, string fullName, double grade)&lt;br&gt;&amp;lt;&amp;lt;constructor&amp;gt;&amp;gt; + Student1(Student1 other)&lt;div&gt;&lt;br&gt;- GetStudentInfo(): &lt;span class=&quot;hljs-keyword&quot;&gt;string&lt;/span&gt;&lt;br&gt;+ DisplayInfo(): &lt;span class=&quot;hljs-keyword&quot;&gt;void&lt;/span&gt;&amp;nbsp;&lt;/div&gt;&lt;div&gt;#&amp;nbsp;GetID(): int&lt;/div&gt;" style="text;strokeColor=none;fillColor=none;align=left;verticalAlign=top;spacingLeft=4;spacingRight=4;overflow=hidden;rotatable=0;points=[[0,0.5],[1,0.5]];portConstraint=eastwest;whiteSpace=wrap;html=1;" parent="DXVNn-tkCiMBmw5VKK68-3" vertex="1">
          <mxGeometry y="268" width="380" height="122" as="geometry" />
        </mxCell>
        <mxCell id="c-tZ_B9AGakPudKKEG37-1" value="«interface» I1  " style="swimlane;fontStyle=0;childLayout=stackLayout;horizontal=1;startSize=26;fillColor=none;horizontalStack=0;resizeParent=1;resizeParentMax=0;resizeLast=0;collapsible=1;marginBottom=0;whiteSpace=wrap;html=1;" parent="1" vertex="1">
          <mxGeometry x="510" y="-1120" width="290" height="100" as="geometry" />
        </mxCell>
        <mxCell id="c-tZ_B9AGakPudKKEG37-2" value="&lt;span class=&quot;hljs-operator&quot;&gt;&lt;span class=&quot;hljs-operator&quot;&gt;&amp;lt;&amp;lt;&lt;/span&gt;getter, setter&lt;span class=&quot;hljs-operator&quot;&gt;&amp;gt;&amp;gt;&amp;nbsp;&lt;/span&gt;+&lt;/span&gt; FullName: &lt;span class=&quot;hljs-type&quot;&gt;int&lt;/span&gt;&amp;nbsp;&lt;br&gt;&lt;span class=&quot;hljs-operator&quot;&gt;&lt;span class=&quot;hljs-operator&quot;&gt;&amp;lt;&amp;lt;&lt;/span&gt;&lt;span class=&quot;hljs-keyword&quot;&gt;method&lt;/span&gt;&lt;span class=&quot;hljs-operator&quot;&gt;&amp;gt;&amp;gt;&amp;nbsp;&lt;/span&gt;+&lt;/span&gt; DisplayInfo(): void&amp;nbsp;&lt;br&gt;&lt;span class=&quot;hljs-operator&quot;&gt;&lt;span class=&quot;hljs-operator&quot;&gt;&amp;lt;&amp;lt;&lt;/span&gt;event&lt;span class=&quot;hljs-operator&quot;&gt;&amp;gt;&amp;gt;&amp;nbsp;&lt;/span&gt;+&lt;/span&gt; Graduated: EventHandler&amp;nbsp;&lt;br&gt;&lt;span class=&quot;hljs-operator&quot;&gt;&lt;span class=&quot;hljs-operator&quot;&gt;&amp;lt;&amp;lt;&lt;/span&gt;indexer&lt;span class=&quot;hljs-operator&quot;&gt;&amp;gt;&amp;gt;&amp;nbsp;&lt;/span&gt;+&lt;/span&gt; this[&lt;span class=&quot;hljs-type&quot;&gt;int&lt;/span&gt; index]: string" style="text;strokeColor=none;fillColor=none;align=left;verticalAlign=top;spacingLeft=4;spacingRight=4;overflow=hidden;rotatable=0;points=[[0,0.5],[1,0.5]];portConstraint=eastwest;whiteSpace=wrap;html=1;" parent="c-tZ_B9AGakPudKKEG37-1" vertex="1">
          <mxGeometry y="26" width="290" height="74" as="geometry" />
        </mxCell>
        <mxCell id="c-tZ_B9AGakPudKKEG37-6" value="Student2" style="swimlane;fontStyle=1;align=center;verticalAlign=top;childLayout=stackLayout;horizontal=1;startSize=26;horizontalStack=0;resizeParent=1;resizeParentMax=0;resizeLast=0;collapsible=1;marginBottom=0;whiteSpace=wrap;html=1;" parent="1" vertex="1">
          <mxGeometry x="470" y="-920" width="370" height="310" as="geometry" />
        </mxCell>
        <mxCell id="c-tZ_B9AGakPudKKEG37-7" value="- const MaxAge:&amp;nbsp;&lt;span class=&quot;hljs-built_in&quot;&gt;int&lt;/span&gt;&amp;nbsp;= 90&lt;br&gt;+ const&amp;nbsp;UniversityName: string = &quot;BSU&quot;&lt;br&gt;&lt;div&gt;&lt;br&gt;- age:&amp;nbsp;&lt;span class=&quot;hljs-built_in&quot;&gt;int&lt;/span&gt;&lt;/div&gt;&lt;div&gt;&lt;span class=&quot;hljs-built_in&quot;&gt;+ subjects : string[5]&amp;nbsp;&lt;br&gt;&lt;/span&gt;&lt;/div&gt;&lt;div&gt;&lt;br&gt;&lt;/div&gt;&lt;div&gt;&lt;span style=&quot;background-color: initial;&quot; class=&quot;hljs-operator&quot;&gt;&amp;lt;&amp;lt;&lt;/span&gt;&lt;span style=&quot;background-color: initial;&quot;&gt;getter, setter&lt;/span&gt;&lt;span style=&quot;background-color: initial;&quot; class=&quot;hljs-operator&quot;&gt;&amp;gt;&amp;gt;&amp;nbsp;&lt;/span&gt;- PrivateStudentID:&amp;nbsp;&lt;span class=&quot;hljs-built_in&quot;&gt;int&lt;/span&gt;&lt;/div&gt;&lt;div&gt;&amp;lt;&amp;lt;getter, setter&amp;gt;&amp;gt; #&amp;nbsp;IsGraduated: bool = false&amp;nbsp;&lt;/div&gt;&lt;div&gt;&lt;span class=&quot;hljs-operator&quot;&gt;&lt;span class=&quot;hljs-operator&quot;&gt;&amp;lt;&amp;lt;&lt;/span&gt;indexer&lt;span class=&quot;hljs-operator&quot;&gt;&amp;gt;&amp;gt;&amp;nbsp;&lt;/span&gt;+&lt;/span&gt;&amp;nbsp;this[&lt;span class=&quot;hljs-type&quot;&gt;int&lt;/span&gt;&amp;nbsp;index]:&amp;nbsp;string&lt;br&gt;&lt;/div&gt;&lt;div&gt;&lt;br&gt;&lt;/div&gt;&lt;div&gt;&amp;lt;&amp;lt;event&amp;gt;&amp;gt; + Graduated : EventHandler&lt;br&gt;&lt;/div&gt;" style="text;strokeColor=none;fillColor=none;align=left;verticalAlign=top;spacingLeft=4;spacingRight=4;overflow=hidden;rotatable=0;points=[[0,0.5],[1,0.5]];portConstraint=eastwest;whiteSpace=wrap;html=1;" parent="c-tZ_B9AGakPudKKEG37-6" vertex="1">
          <mxGeometry y="26" width="370" height="174" as="geometry" />
        </mxCell>
        <mxCell id="c-tZ_B9AGakPudKKEG37-8" value="" style="line;strokeWidth=1;fillColor=none;align=left;verticalAlign=middle;spacingTop=-1;spacingLeft=3;spacingRight=3;rotatable=0;labelPosition=right;points=[];portConstraint=eastwest;strokeColor=inherit;" parent="c-tZ_B9AGakPudKKEG37-6" vertex="1">
          <mxGeometry y="200" width="370" height="8" as="geometry" />
        </mxCell>
        <mxCell id="c-tZ_B9AGakPudKKEG37-9" value="&amp;lt;&amp;lt;constructor&amp;gt;&amp;gt; + Student2()&amp;nbsp;&lt;br&gt;&amp;lt;&amp;lt;constructor&amp;gt;&amp;gt; + Student2(int age, string fullName, double grade)&lt;br&gt;&amp;lt;&amp;lt;constructor&amp;gt;&amp;gt; + Student2(Student2 other)&lt;div&gt;&lt;br&gt;&lt;/div&gt;&lt;div&gt;&lt;br&gt;&lt;span class=&quot;hljs-meta&quot;&gt;# Graduate(): void&amp;nbsp; &amp;nbsp;&amp;nbsp;&lt;/span&gt;&lt;br&gt;&lt;/div&gt;" style="text;strokeColor=none;fillColor=none;align=left;verticalAlign=top;spacingLeft=4;spacingRight=4;overflow=hidden;rotatable=0;points=[[0,0.5],[1,0.5]];portConstraint=eastwest;whiteSpace=wrap;html=1;" parent="c-tZ_B9AGakPudKKEG37-6" vertex="1">
          <mxGeometry y="208" width="370" height="102" as="geometry" />
        </mxCell>
        <mxCell id="c-tZ_B9AGakPudKKEG37-10" value="Реализация" style="text;strokeColor=none;fillColor=none;html=1;fontSize=14;fontStyle=1;verticalAlign=middle;align=center;" parent="1" vertex="1">
          <mxGeometry x="650" y="-970" width="103" height="10" as="geometry" />
        </mxCell>
        <mxCell id="c-tZ_B9AGakPudKKEG37-11" value="" style="endArrow=open;endFill=1;endSize=12;html=1;rounded=0;exitX=0.5;exitY=0;exitDx=0;exitDy=0;entryX=0.497;entryY=1.043;entryDx=0;entryDy=0;entryPerimeter=0;" parent="1" source="c-tZ_B9AGakPudKKEG37-6" target="c-tZ_B9AGakPudKKEG37-2" edge="1">
          <mxGeometry width="160" relative="1" as="geometry">
            <mxPoint x="430" y="-790" as="sourcePoint" />
            <mxPoint x="650" y="-1010" as="targetPoint" />
            <Array as="points" />
          </mxGeometry>
        </mxCell>
        <mxCell id="E09dxTyS9HifgolPbwPc-2" value="&lt;font style=&quot;font-size: 14px;&quot;&gt;&lt;b&gt;Наследование&lt;/b&gt;&lt;/font&gt;" style="html=1;verticalAlign=bottom;endArrow=block;curved=0;rounded=0;exitX=0.994;exitY=0.609;exitDx=0;exitDy=0;entryX=0.002;entryY=0.663;entryDx=0;entryDy=0;entryPerimeter=0;exitPerimeter=0;" edge="1" parent="1" source="DXVNn-tkCiMBmw5VKK68-6" target="c-tZ_B9AGakPudKKEG37-7">
          <mxGeometry width="80" relative="1" as="geometry">
            <mxPoint x="380" y="-810" as="sourcePoint" />
            <mxPoint x="440" y="-812" as="targetPoint" />
          </mxGeometry>
        </mxCell>
      </root>
    </mxGraphModel>
  </diagram>
</mxfile>
